<svg xmlns="http://www.w3.org/2000/svg" viewBox="0 0 1000 1000" width="40px" height="40px">
  <path fill="#412846" d="M500 10.8L10.8 500 500 989.2 989.2 500 500 10.8z"/>
  <path fill="#5D4A71" d="M500 10.8L10.8 500h989.2L500 10.8z"/>
  <path fill="#4B384C" d="M500 989.2l489.2-489.2H10.8L500 989.2z"/>
  <path fill="#FFFFFF" d="M723.9 300.4c-9.8-9.8-25.6-9.8-35.4 0L418.4 570.5l-88.5-88.5c-9.8-9.8-25.6-9.8-35.4 0-9.8 9.8-9.8 25.6 0 35.4l106.3 106.3c4.9 4.9 11.3 7.3 17.7 7.3 6.4 0 12.8-2.4 17.7-7.3l288.1-288.1c9.8-9.7 9.8-25.5 0-35.2z"/>
</svg>
