<svg _ngcontent-ng-c3859770719="" width="112" height="17" viewBox="0 0 112 17" fill="none" xmlns="http://www.w3.org/2000/svg" class="ng-tns-c3859770719-2"><path _ngcontent-ng-c3859770719="" d="M7.27 16L0.692 0.599999H5.4L10.944 13.932H8.172L13.848 0.599999H18.16L11.56 16H7.27ZM19.0615 16V0.599999H23.4175V16H19.0615ZM31.9286 16.308C30.6672 16.308 29.4499 16.154 28.2766 15.846C27.1179 15.5233 26.1719 15.1127 25.4386 14.614L26.8686 11.402C27.5579 11.842 28.3499 12.2087 29.2446 12.502C30.1539 12.7807 31.0559 12.92 31.9506 12.92C32.5519 12.92 33.0359 12.8687 33.4026 12.766C33.7692 12.6487 34.0332 12.502 34.1946 12.326C34.3706 12.1353 34.4586 11.9153 34.4586 11.666C34.4586 11.314 34.2972 11.0353 33.9746 10.83C33.6519 10.6247 33.2339 10.456 32.7206 10.324C32.2072 10.192 31.6352 10.06 31.0046 9.928C30.3886 9.796 29.7652 9.62733 29.1346 9.422C28.5186 9.21667 27.9539 8.95267 27.4406 8.63C26.9272 8.29267 26.5092 7.86 26.1866 7.332C25.8639 6.78933 25.7026 6.10733 25.7026 5.286C25.7026 4.362 25.9519 3.526 26.4506 2.778C26.9639 2.03 27.7266 1.42867 28.7386 0.973999C29.7506 0.519332 31.0119 0.291999 32.5226 0.291999C33.5346 0.291999 34.5246 0.409333 35.4926 0.644C36.4752 0.863999 37.3479 1.194 38.1106 1.634L36.7686 4.868C36.0352 4.472 35.3092 4.17867 34.5906 3.988C33.8719 3.78267 33.1752 3.68 32.5006 3.68C31.8992 3.68 31.4152 3.746 31.0486 3.878C30.6819 3.99533 30.4179 4.15667 30.2566 4.362C30.0952 4.56733 30.0146 4.802 30.0146 5.066C30.0146 5.40333 30.1686 5.67467 30.4766 5.88C30.7992 6.07067 31.2172 6.232 31.7306 6.364C32.2586 6.48133 32.8306 6.606 33.4466 6.738C34.0772 6.87 34.7006 7.03867 35.3166 7.244C35.9472 7.43467 36.5192 7.69867 37.0326 8.036C37.5459 8.35867 37.9566 8.79133 38.2646 9.334C38.5872 9.862 38.7486 10.5293 38.7486 11.336C38.7486 12.2307 38.4919 13.0593 37.9786 13.822C37.4799 14.57 36.7246 15.1713 35.7126 15.626C34.7152 16.0807 33.4539 16.308 31.9286 16.308ZM38.9127 16L45.7107 0.599999H50.0007L56.8207 16H52.2887L46.9647 2.734H48.6807L43.3567 16H38.9127ZM42.6307 13.008L43.7527 9.796H51.2767L52.3987 13.008H42.6307ZM57.1756 16V13.272L62.9396 7.882C63.3503 7.50067 63.651 7.16333 63.8416 6.87C64.047 6.57667 64.179 6.31267 64.2376 6.078C64.311 5.82867 64.3476 5.60133 64.3476 5.396C64.3476 4.89733 64.179 4.50867 63.8416 4.23C63.519 3.95133 63.0276 3.812 62.3676 3.812C61.8103 3.812 61.2896 3.93667 60.8056 4.186C60.3216 4.43533 59.9256 4.80933 59.6176 5.308L56.3836 3.504C56.9556 2.536 57.7843 1.75867 58.8696 1.172C59.955 0.585332 61.253 0.291999 62.7636 0.291999C63.9516 0.291999 64.993 0.482666 65.8876 0.863999C66.7823 1.24533 67.479 1.788 67.9776 2.492C68.491 3.196 68.7476 4.02467 68.7476 4.978C68.7476 5.47667 68.6816 5.97533 68.5496 6.474C68.4176 6.958 68.161 7.47867 67.7796 8.036C67.413 8.57867 66.863 9.18733 66.1296 9.862L61.5536 14.086L60.8276 12.546H69.1656V16H57.1756ZM75.2735 7.354H82.3795V10.72H75.2735V7.354ZM75.5815 16H71.2255V0.599999H83.3035V3.966H75.5815V16ZM85.3408 16V0.599999H89.6968V12.546H97.0448V16H85.3408ZM101.094 16V9.488L102.106 12.106L95.2202 0.599999H99.8182L104.79 8.938H102.128L107.122 0.599999H111.346L104.482 12.106L105.45 9.488V16H101.094Z" fill="currentColor" class="ng-tns-c3859770719-2"></path></svg>